<svg xmlns="http://www.w3.org/2000/svg" viewBox="0 0 800 800">
  <defs>
    <linearGradient id="bg" x1="0" y1="0" x2="1" y2="1">
      <stop offset="0%" stop-color="#F9D8E0"/>
      <stop offset="100%" stop-color="#D6EBF7"/>
    </linearGradient>
  </defs>
  <rect width="800" height="800" fill="url(#bg)"/>
  <circle cx="150" cy="200" r="9" fill="#FFFFFF" opacity="0.7"/>
  <circle cx="650" cy="600" r="9" fill="#FFFFFF" opacity="0.7"/>
  <path d="M660 190 l7 18 18 7 -18 7 -7 18 -7-18 -18-7 18-7z" fill="#E8B84B" opacity="0.8"/>
  <rect x="240" y="280" width="320" height="300" rx="30" fill="#FFFFFF"/>
  <rect x="240" y="280" width="320" height="300" rx="30" fill="none" stroke="#B4DCF0" stroke-width="4"/>
  <rect x="240" y="280" width="320" height="60" rx="20" fill="#FDEEF2"/>
  <circle cx="400" cy="310" r="14" fill="#FFFFFF" stroke="#F2B8C6" stroke-width="3"/>
  <circle cx="290" cy="460" r="8" fill="#E3D9F7"/>
  <circle cx="320" cy="440" r="6" fill="#F9D8E0"/>
  <circle cx="500" cy="470" r="9" fill="#D6EBF7"/>
  <circle cx="480" cy="500" r="6" fill="#F9D8E0"/>
  <g transform="translate(240,300)">
    <path d="M0 0c-14-22-48-26-60-6-8 14 4 30 26 30 14 0 27-10 34-24z" fill="#FF8C7A"/>
    <path d="M0 0c14-22 48-26 60-6 8 14-4 30-26 30-14 0-27-10-34-24z" fill="#FF8C7A"/>
    <circle cx="0" cy="0" r="8" fill="#F26C56"/>
  </g>
  <text x="400" y="720" text-anchor="middle" font-family="sans-serif" font-size="20" fill="#8A7377">Photo coming soon — Makeup Boxes</text>
</svg>
