<svg xmlns="http://www.w3.org/2000/svg" viewBox="0 0 800 800">
  <defs>
    <linearGradient id="bg" x1="0" y1="0" x2="1" y2="1">
      <stop offset="0%" stop-color="#D6EBF7"/>
      <stop offset="100%" stop-color="#E3D9F7"/>
    </linearGradient>
  </defs>
  <rect width="800" height="800" fill="url(#bg)"/>
  <circle cx="150" cy="220" r="9" fill="#FFFFFF" opacity="0.7"/>
  <circle cx="650" cy="600" r="8" fill="#FFFFFF" opacity="0.7"/>
  <path d="M650 220 l7 18 18 7 -18 7 -7 18 -7-18 -18-7 18-7z" fill="#E8B84B" opacity="0.8"/>
  <rect x="365" y="540" width="70" height="140" rx="20" fill="#FFFFFF"/>
  <circle cx="400" cy="380" r="180" fill="#FFFFFF"/>
  <circle cx="400" cy="380" r="180" fill="none" stroke="#B4DCF0" stroke-width="6"/>
  <circle cx="400" cy="380" r="140" fill="#EDF7FC"/>
  <circle cx="300" cy="300" r="9" fill="#F9D8E0"/>
  <circle cx="330" cy="270" r="6" fill="#E3D9F7"/>
  <circle cx="500" cy="460" r="8" fill="#F9D8E0"/>
  <g transform="translate(400,190)">
    <path d="M0 0c-18-26-58-30-72-8-10 16 4 34 30 34 18 0 34-12 42-26z" fill="#FF8C7A"/>
    <path d="M0 0c18-26 58-30 72-8 10 16-4 34-30 34-18 0-34-12-42-26z" fill="#FF8C7A"/>
    <circle cx="0" cy="0" r="10" fill="#F26C56"/>
  </g>
  <text x="400" y="750" text-anchor="middle" font-family="sans-serif" font-size="20" fill="#8A7377">Photo coming soon — Mirrors</text>
</svg>
