<svg xmlns="http://www.w3.org/2000/svg" viewBox="0 0 800 800">
  <defs>
    <linearGradient id="bg" x1="0" y1="0" x2="1" y2="1">
      <stop offset="0%" stop-color="#FDEEF2"/>
      <stop offset="100%" stop-color="#E3D9F7"/>
    </linearGradient>
  </defs>
  <rect width="800" height="800" fill="url(#bg)"/>
  <circle cx="120" cy="140" r="14" fill="#FFFFFF" opacity="0.6"/>
  <circle cx="680" cy="200" r="10" fill="#FFFFFF" opacity="0.6"/>
  <circle cx="640" cy="640" r="16" fill="#FFFFFF" opacity="0.5"/>
  <circle cx="150" cy="660" r="9" fill="#FFFFFF" opacity="0.6"/>
  <path d="M400 60 l14 34 34 14 -34 14 -14 34 -14-34 -34-14 34-14z" fill="#E8B84B" opacity="0.8"/>
  <!-- phone case silhouette -->
  <rect x="270" y="190" width="260" height="460" rx="46" fill="#FFFFFF"/>
  <rect x="270" y="190" width="260" height="460" rx="46" fill="none" stroke="#F2B8C6" stroke-width="4"/>
  <circle cx="400" cy="240" r="10" fill="#F9D8E0"/>
  <!-- pearls trailing down the side -->
  <circle cx="300" cy="300" r="9" fill="#F9D8E0"/>
  <circle cx="290" cy="330" r="7" fill="#E3D9F7"/>
  <circle cx="305" cy="358" r="6" fill="#F9D8E0"/>
  <circle cx="500" cy="500" r="8" fill="#D6EBF7"/>
  <circle cx="512" cy="530" r="6" fill="#F9D8E0"/>
  <!-- bow -->
  <g transform="translate(400,420)">
    <path d="M0 0c-16-26-56-30-70-8-10 16 4 34 30 34 16 0 32-12 40-26z" fill="#FF8C7A"/>
    <path d="M0 0c16-26 56-30 70-8 10 16-4 34-30 34-16 0-32-12-40-26z" fill="#FF8C7A"/>
    <circle cx="0" cy="0" r="10" fill="#F26C56"/>
  </g>
  <text x="400" y="720" text-anchor="middle" font-family="sans-serif" font-size="20" fill="#8A7377">Photo coming soon — Phone Cases</text>
</svg>
